solid ASCII
  facet normal -0.000000e+00 0.000000e+00 1.000000e+00
    outer loop
      vertex   0.000000e+00 3.284000e+01 0.000000e+00
      vertex   0.000000e+00 0.000000e+00 0.000000e+00
      vertex   3.100000e+01 3.284000e+01 0.000000e+00
    endloop
  endfacet
  facet normal 0.000000e+00 0.000000e+00 1.000000e+00
    outer loop
      vertex   3.100000e+01 3.284000e+01 0.000000e+00
      vertex   0.000000e+00 0.000000e+00 0.000000e+00
      vertex   3.100000e+01 0.000000e+00 0.000000e+00
    endloop
  endfacet
  facet normal 0.000000e+00 -1.000000e+00 0.000000e+00
    outer loop
      vertex   0.000000e+00 3.284000e+01 5.250000e+00
      vertex   0.000000e+00 3.284000e+01 0.000000e+00
      vertex   3.100000e+01 3.284000e+01 5.250000e+00
    endloop
  endfacet
  facet normal 0.000000e+00 -1.000000e+00 -0.000000e+00
    outer loop
      vertex   3.100000e+01 3.284000e+01 5.250000e+00
      vertex   0.000000e+00 3.284000e+01 0.000000e+00
      vertex   3.100000e+01 3.284000e+01 0.000000e+00
    endloop
  endfacet
  facet normal -0.000000e+00 0.000000e+00 1.000000e+00
    outer loop
      vertex   0.000000e+00 3.784000e+01 5.250000e+00
      vertex   0.000000e+00 3.284000e+01 5.250000e+00
      vertex   3.100000e+01 3.784000e+01 5.250000e+00
    endloop
  endfacet
  facet normal 0.000000e+00 0.000000e+00 1.000000e+00
    outer loop
      vertex   3.100000e+01 3.784000e+01 5.250000e+00
      vertex   0.000000e+00 3.284000e+01 5.250000e+00
      vertex   3.100000e+01 3.284000e+01 5.250000e+00
    endloop
  endfacet
  facet normal 0.000000e+00 1.000000e+00 0.000000e+00
    outer loop
      vertex   0.000000e+00 3.784000e+01 -4.000000e+00
      vertex   0.000000e+00 3.784000e+01 5.250000e+00
      vertex   3.100000e+01 3.784000e+01 -4.000000e+00
    endloop
  endfacet
  facet normal 0.000000e+00 1.000000e+00 -0.000000e+00
    outer loop
      vertex   3.100000e+01 3.784000e+01 -4.000000e+00
      vertex   0.000000e+00 3.784000e+01 5.250000e+00
      vertex   3.100000e+01 3.784000e+01 5.250000e+00
    endloop
  endfacet
  facet normal 0.000000e+00 0.000000e+00 -1.000000e+00
    outer loop
      vertex   0.000000e+00 -5.000000e+00 -4.000000e+00
      vertex   0.000000e+00 3.784000e+01 -4.000000e+00
      vertex   3.100000e+01 -5.000000e+00 -4.000000e+00
    endloop
  endfacet
  facet normal 0.000000e+00 0.000000e+00 -1.000000e+00
    outer loop
      vertex   3.100000e+01 -5.000000e+00 -4.000000e+00
      vertex   0.000000e+00 3.784000e+01 -4.000000e+00
      vertex   3.100000e+01 3.784000e+01 -4.000000e+00
    endloop
  endfacet
  facet normal 0.000000e+00 -1.000000e+00 0.000000e+00
    outer loop
      vertex   0.000000e+00 -5.000000e+00 5.250000e+00
      vertex   0.000000e+00 -5.000000e+00 -4.000000e+00
      vertex   3.100000e+01 -5.000000e+00 5.250000e+00
    endloop
  endfacet
  facet normal 0.000000e+00 -1.000000e+00 -0.000000e+00
    outer loop
      vertex   3.100000e+01 -5.000000e+00 5.250000e+00
      vertex   0.000000e+00 -5.000000e+00 -4.000000e+00
      vertex   3.100000e+01 -5.000000e+00 -4.000000e+00
    endloop
  endfacet
  facet normal -0.000000e+00 0.000000e+00 1.000000e+00
    outer loop
      vertex   0.000000e+00 0.000000e+00 5.250000e+00
      vertex   0.000000e+00 -5.000000e+00 5.250000e+00
      vertex   3.100000e+01 0.000000e+00 5.250000e+00
    endloop
  endfacet
  facet normal 0.000000e+00 0.000000e+00 1.000000e+00
    outer loop
      vertex   3.100000e+01 0.000000e+00 5.250000e+00
      vertex   0.000000e+00 -5.000000e+00 5.250000e+00
      vertex   3.100000e+01 -5.000000e+00 5.250000e+00
    endloop
  endfacet
  facet normal 0.000000e+00 1.000000e+00 0.000000e+00
    outer loop
      vertex   0.000000e+00 0.000000e+00 0.000000e+00
      vertex   0.000000e+00 0.000000e+00 5.250000e+00
      vertex   3.100000e+01 0.000000e+00 0.000000e+00
    endloop
  endfacet
  facet normal 0.000000e+00 1.000000e+00 -0.000000e+00
    outer loop
      vertex   3.100000e+01 0.000000e+00 0.000000e+00
      vertex   0.000000e+00 0.000000e+00 5.250000e+00
      vertex   3.100000e+01 0.000000e+00 5.250000e+00
    endloop
  endfacet
  facet normal 1.000000e+00 0.000000e+00 0.000000e+00
    outer loop
      vertex   3.100000e+01 0.000000e+00 5.250000e+00
      vertex   3.100000e+01 -5.000000e+00 5.250000e+00
      vertex   3.100000e+01 0.000000e+00 0.000000e+00
    endloop
  endfacet
  facet normal 1.000000e+00 0.000000e+00 0.000000e+00
    outer loop
      vertex   3.100000e+01 0.000000e+00 0.000000e+00
      vertex   3.100000e+01 -5.000000e+00 5.250000e+00
      vertex   3.100000e+01 -5.000000e+00 -4.000000e+00
    endloop
  endfacet
  facet normal 1.000000e+00 -0.000000e+00 0.000000e+00
    outer loop
      vertex   3.100000e+01 0.000000e+00 0.000000e+00
      vertex   3.100000e+01 -5.000000e+00 -4.000000e+00
      vertex   3.100000e+01 3.284000e+01 0.000000e+00
    endloop
  endfacet
  facet normal 1.000000e+00 0.000000e+00 0.000000e+00
    outer loop
      vertex   3.100000e+01 3.284000e+01 0.000000e+00
      vertex   3.100000e+01 -5.000000e+00 -4.000000e+00
      vertex   3.100000e+01 3.784000e+01 -4.000000e+00
    endloop
  endfacet
  facet normal 1.000000e+00 -0.000000e+00 0.000000e+00
    outer loop
      vertex   3.100000e+01 3.284000e+01 0.000000e+00
      vertex   3.100000e+01 3.784000e+01 -4.000000e+00
      vertex   3.100000e+01 3.784000e+01 5.250000e+00
    endloop
  endfacet
  facet normal 1.000000e+00 0.000000e+00 0.000000e+00
    outer loop
      vertex   3.100000e+01 3.784000e+01 5.250000e+00
      vertex   3.100000e+01 3.284000e+01 5.250000e+00
      vertex   3.100000e+01 3.284000e+01 0.000000e+00
    endloop
  endfacet
  facet normal -1.000000e+00 -0.000000e+00 -0.000000e+00
    outer loop
      vertex   0.000000e+00 0.000000e+00 5.250000e+00
      vertex   0.000000e+00 0.000000e+00 0.000000e+00
      vertex   0.000000e+00 -5.000000e+00 5.250000e+00
    endloop
  endfacet
  facet normal -1.000000e+00 0.000000e+00 0.000000e+00
    outer loop
      vertex   0.000000e+00 -5.000000e+00 5.250000e+00
      vertex   0.000000e+00 0.000000e+00 0.000000e+00
      vertex   0.000000e+00 -5.000000e+00 -4.000000e+00
    endloop
  endfacet
  facet normal -1.000000e+00 0.000000e+00 0.000000e+00
    outer loop
      vertex   0.000000e+00 -5.000000e+00 -4.000000e+00
      vertex   0.000000e+00 0.000000e+00 0.000000e+00
      vertex   0.000000e+00 3.284000e+01 0.000000e+00
    endloop
  endfacet
  facet normal -1.000000e+00 0.000000e+00 0.000000e+00
    outer loop
      vertex   0.000000e+00 -5.000000e+00 -4.000000e+00
      vertex   0.000000e+00 3.284000e+01 0.000000e+00
      vertex   0.000000e+00 3.784000e+01 -4.000000e+00
    endloop
  endfacet
  facet normal -1.000000e+00 0.000000e+00 0.000000e+00
    outer loop
      vertex   0.000000e+00 3.784000e+01 -4.000000e+00
      vertex   0.000000e+00 3.284000e+01 0.000000e+00
      vertex   0.000000e+00 3.784000e+01 5.250000e+00
    endloop
  endfacet
  facet normal -1.000000e+00 -0.000000e+00 0.000000e+00
    outer loop
      vertex   0.000000e+00 3.784000e+01 5.250000e+00
      vertex   0.000000e+00 3.284000e+01 0.000000e+00
      vertex   0.000000e+00 3.284000e+01 5.250000e+00
    endloop
  endfacet
endsolid
